<mxfile host="Electron" agent="Mozilla/5.0 (Macintosh; Intel Mac OS X 10_15_7) AppleWebKit/537.36 (KHTML, like Gecko) draw.io/28.2.8 Chrome/140.0.7339.240 Electron/38.4.0 Safari/537.36" version="28.2.8">
  <diagram name="第 1 页" id="eRhofKaqvxbvxO43acGs">
    <mxGraphModel dx="1412" dy="898" grid="1" gridSize="10" guides="1" tooltips="1" connect="1" arrows="1" fold="1" page="1" pageScale="1" pageWidth="827" pageHeight="1169" math="0" shadow="0">
      <root>
        <mxCell id="0" />
        <mxCell id="1" parent="0" />
        <mxCell id="pIRhAdNaLS4rUi6lnEEe-4" style="edgeStyle=orthogonalEdgeStyle;rounded=0;orthogonalLoop=1;jettySize=auto;html=1;entryX=0;entryY=0.5;entryDx=0;entryDy=0;" edge="1" parent="1" source="pIRhAdNaLS4rUi6lnEEe-3" target="pIRhAdNaLS4rUi6lnEEe-1">
          <mxGeometry relative="1" as="geometry" />
        </mxCell>
        <mxCell id="pIRhAdNaLS4rUi6lnEEe-9" value="" style="rounded=1;whiteSpace=wrap;html=1;fillColor=#d80073;fontColor=#ffffff;strokeColor=#A50040;" vertex="1" parent="1">
          <mxGeometry x="210" y="415" width="340" height="150" as="geometry" />
        </mxCell>
        <mxCell id="pIRhAdNaLS4rUi6lnEEe-1" value="&lt;div&gt;&lt;font style=&quot;font-size: 20px;&quot;&gt;&lt;b&gt;Web&lt;/b&gt;&lt;/font&gt;&lt;/div&gt;&lt;font style=&quot;font-size: 20px;&quot;&gt;&lt;b&gt;Resource&lt;/b&gt;&lt;/font&gt;" style="rounded=1;whiteSpace=wrap;html=1;fillColor=#6a00ff;fontColor=#ffffff;strokeColor=#3700CC;" vertex="1" parent="1">
          <mxGeometry x="620" y="390" width="170" height="200" as="geometry" />
        </mxCell>
        <mxCell id="pIRhAdNaLS4rUi6lnEEe-3" value="" style="points=[];aspect=fixed;html=1;align=center;shadow=0;dashed=0;fillColor=#FF6A00;strokeColor=none;shape=mxgraph.alibaba_cloud.user;" vertex="1" parent="1">
          <mxGeometry x="60" y="445" width="90" height="90" as="geometry" />
        </mxCell>
        <mxCell id="pIRhAdNaLS4rUi6lnEEe-7" value="" style="shape=image;html=1;verticalLabelPosition=bottom;verticalAlign=top;imageAspect=1;aspect=fixed;image=data:image/svg+xml,PHN2ZyB4bWxucz0iaHR0cDovL3d3dy53My5vcmcvMjAwMC9zdmciIHZpZXdCb3g9IjAgMCAxMDguMDgwMDAxODMxMDU0NjkgMTUxIiBkYXRhLW5hbWU9IkxheWVyIDEiIGlkPSJMYXllcl8xIiB3aWR0aD0iMTA4LjA4MDAwMTgzMTA1NDY5IiBoZWlnaHQ9IjE1MSI+PGRlZnM+PHN0eWxlPi5jbHMtMXtmaWxsOiM2YmIzNDQ7fTwvc3R5bGU+PC9kZWZzPjx0aXRsZT5sb2dvLXNlY3VyaXR5PC90aXRsZT48cGF0aCBkPSJNMTA4LjA4LDEzLDU0LDAsMCwxM1Y1NC42SDI4LjY3YTIzLjk0LDIzLjk0LDAsMCwwLDAsNkgwVjgwLjE0QzAsMTI1LDU0LDE1MSw1NCwxNTFzNTQtMjYsNTQtNzAuODNWNjAuNjJINzkuNGEyMi43NSwyMi43NSwwLDAsMCwwLTZoMjguNjhaTTU0LDc3LjE1QTE5LjU0LDE5LjU0LDAsMSwxLDczLjU4LDU3LjYxLDE5LjU0LDE5LjU0LDAsMCwxLDU0LDc3LjE1WiIgY2xhc3M9ImNscy0xIi8+PHBhdGggZD0iTTU0LDQ4LjM0YTUuMDYsNS4wNiwwLDAsMC0yLjMyLDkuNTZ2MS4zMWwxLjQ5LDEuNDl2MWwxLDF2MWwtLjg4Ljg4Ljk0LDEuNTV2MWwtMSwxLjE5LDEuNCwxLjQsMS41NS0xLjU1VjU4QTUuMDYsNS4wNiwwLDAsMCw1NCw0OC4zNFptMCw1LjI2YTEuODgsMS44OCwwLDEsMSwxLjg4LTEuODhBMS44OCwxLjg4LDAsMCwxLDU0LDUzLjZaIiBjbGFzcz0iY2xzLTEiLz48L3N2Zz4=;" vertex="1" parent="1">
          <mxGeometry x="246" y="445" width="64.11" height="90" as="geometry" />
        </mxCell>
        <mxCell id="pIRhAdNaLS4rUi6lnEEe-10" value="&lt;font style=&quot;font-size: 20px;&quot;&gt;&lt;b&gt;Spring Security&lt;/b&gt;&lt;/font&gt;" style="text;html=1;whiteSpace=wrap;strokeColor=none;fillColor=none;align=center;verticalAlign=middle;rounded=0;" vertex="1" parent="1">
          <mxGeometry x="356" y="475" width="150" height="30" as="geometry" />
        </mxCell>
        <mxCell id="pIRhAdNaLS4rUi6lnEEe-11" value="User" style="text;html=1;whiteSpace=wrap;strokeColor=none;fillColor=none;align=center;verticalAlign=middle;rounded=0;" vertex="1" parent="1">
          <mxGeometry x="75" y="540" width="60" height="30" as="geometry" />
        </mxCell>
      </root>
    </mxGraphModel>
  </diagram>
</mxfile>
